<svg xmlns="http://www.w3.org/2000/svg" width="512" height="512" viewBox="0 0 512 512" version="1.1"><path d="" stroke="none" fill="#080404" fill-rule="evenodd"/><path d="M 223.564 1.625 C 160.656 9.681, 99.586 43.103, 59.678 91.313 C 27.798 129.824, 7.508 176.467, 1.536 224.970 C -0.453 241.116, -0.453 270.884, 1.536 287.030 C 7.294 333.793, 27.294 380.859, 57.022 417.605 C 65.222 427.742, 84.258 446.778, 94.395 454.978 C 124.253 479.134, 163.707 498.160, 201.066 506.419 C 234.922 513.903, 277.078 513.903, 310.934 506.419 C 348.232 498.174, 387.795 479.095, 417.605 454.978 C 427.742 446.778, 446.778 427.742, 454.978 417.605 C 484.448 381.179, 505.650 331.430, 510.283 287.838 C 510.916 281.877, 511.787 277, 512.217 277 C 512.648 277, 512.964 266.988, 512.921 254.750 C 512.878 242.512, 512.566 233.175, 512.229 234 C 511.891 234.825, 511.041 230.441, 510.338 224.258 C 505.270 179.631, 484.479 130.860, 454.978 94.395 C 446.818 84.309, 427.756 65.233, 417.740 57.132 C 380.788 27.243, 333.926 7.310, 287.030 1.536 C 271.561 -0.369, 238.774 -0.323, 223.564 1.625 M 234.500 50.107 C 188.834 54.909, 145.482 75.205, 112.138 107.393 C 40.987 176.077, 28.574 286.497, 82.730 369 C 153.771 477.228, 304.656 494.956, 398.296 406.078 C 463.904 343.806, 481.525 246.911, 442.045 165.500 C 429.392 139.408, 411.091 116.053, 388.500 97.166 C 345.925 61.572, 289.487 44.326, 234.500 50.107 M 232 66.374 L 223.500 67.500 223 127 C 222.450 192.498, 222.727 189.686, 216.081 197.255 C 214.338 199.240, 210.892 201.842, 208.423 203.037 C 199.539 207.338, 197.821 206.959, 139 187.738 L 85.500 170.256 81.802 177.878 C 75.307 191.263, 68.734 213.820, 66.613 230 L 66.023 234.500 86.761 241.183 C 165.348 266.508, 173.061 269.165, 177.159 272.325 C 185.850 279.025, 188.998 292.203, 184.169 301.669 C 183.021 303.918, 168.296 324.727, 151.447 347.911 C 134.597 371.095, 121.040 390.663, 121.321 391.395 C 122.126 393.492, 140.586 408.564, 150.447 415.176 C 158.729 420.730, 174.878 429.534, 175.459 428.813 C 175.598 428.641, 189.377 409.647, 206.079 386.604 C 222.780 363.562, 237.663 343.490, 239.152 342.002 C 243.623 337.531, 248.786 335.559, 256 335.567 C 263.465 335.575, 268.872 337.893, 273.829 343.209 C 276.099 345.644, 325.194 412.590, 335.494 427.295 C 336.715 429.038, 337.198 428.923, 344.858 425.071 C 349.301 422.838, 357.334 418.028, 362.709 414.383 C 373.366 407.159, 391 392.451, 391 390.789 C 391 390.218, 377.264 370.867, 360.476 347.788 C 343.687 324.708, 329.123 304.177, 328.111 302.163 C 322.591 291.179, 326.225 277.584, 336.386 271.200 C 338.938 269.596, 362.063 261.598, 393.342 251.500 L 446.001 234.500 445.399 230 C 443.208 213.612, 436.676 191.219, 430.198 177.891 L 426.500 170.281 373 187.752 C 328.950 202.138, 318.490 205.222, 313.783 205.217 C 306.796 205.209, 300.399 202.357, 295.919 197.255 C 289.273 189.686, 289.550 192.498, 289 127 L 288.500 67.500 279.500 66.327 C 268.248 64.859, 243.239 64.884, 232 66.374 M 194.500 75.035 C 181.646 79.311, 157.101 91.834, 146.076 99.741 C 133.720 108.602, 120.043 120.881, 112.174 130.176 C 103.700 140.186, 92.931 155.362, 93.800 156.069 C 94.185 156.383, 117.807 164.192, 146.293 173.423 C 194.713 189.113, 198.288 190.124, 201.166 188.931 C 206.995 186.517, 207 186.467, 207 126.532 C 207 75.256, 206.896 72.001, 205.250 72.021 C 204.287 72.032, 199.450 73.388, 194.500 75.035 M 305 126.532 C 305 186.428, 305.008 186.518, 310.811 188.922 C 313.659 190.101, 317.403 189.045, 365.684 173.437 C 394.183 164.224, 417.815 156.419, 418.200 156.093 C 418.585 155.767, 416.031 151.484, 412.526 146.575 C 392.835 119, 370.865 100.118, 341.500 85.531 C 326.952 78.304, 310.841 72, 306.920 72 C 305.050 72, 305 73.421, 305 126.532 M 250.455 174.455 C 248.131 176.778, 248 177.527, 248 188.500 C 248 199.473, 248.131 200.222, 250.455 202.545 C 252.002 204.093, 254.052 205, 256 205 C 257.948 205, 259.998 204.093, 261.545 202.545 C 263.869 200.222, 264 199.473, 264 188.500 C 264 177.527, 263.869 176.778, 261.545 174.455 C 259.998 172.907, 257.948 172, 256 172 C 254.052 172, 252.002 172.907, 250.455 174.455 M 244.324 220.383 C 238.294 222.350, 233.929 225.299, 228.573 231.026 C 221.167 238.943, 219.500 243.531, 219.500 256 C 219.500 265.544, 219.756 267.001, 222.315 272 C 226.005 279.211, 232.838 286.083, 239.852 289.637 C 245.001 292.247, 246.428 292.500, 256 292.500 C 265.572 292.500, 266.999 292.247, 272.148 289.637 C 279.162 286.083, 285.995 279.211, 289.685 272 C 292.244 267.001, 292.500 265.544, 292.500 256 C 292.500 246.428, 292.247 245.001, 289.637 239.852 C 286.065 232.802, 279.173 225.970, 272 222.366 C 267.433 220.072, 264.973 219.554, 257.500 219.312 C 251.845 219.129, 246.948 219.527, 244.324 220.383 M 173.315 229.007 C 168.667 230.880, 167.472 238.240, 171.250 241.730 C 172.488 242.874, 178.175 245.282, 183.888 247.082 C 193.389 250.076, 194.498 250.231, 196.864 248.903 C 198.287 248.104, 200.122 246.255, 200.943 244.793 C 202.280 242.410, 202.261 241.770, 200.756 238.615 C 199.185 235.321, 198.362 234.869, 187.874 231.548 C 175.513 227.634, 176.358 227.781, 173.315 229.007 M 323.713 231.610 C 313.683 234.843, 312.808 235.334, 311.246 238.611 C 309.739 241.770, 309.720 242.410, 311.057 244.793 C 311.878 246.255, 313.713 248.104, 315.136 248.903 C 317.502 250.231, 318.611 250.076, 328.112 247.082 C 339.504 243.493, 343 241.104, 343 236.907 C 343 232.803, 342.058 231.081, 338.928 229.463 C 335.405 227.641, 336.506 227.485, 323.713 231.610 M 0.428 256 C 0.428 268.375, 0.571 273.438, 0.747 267.250 C 0.922 261.063, 0.922 250.938, 0.747 244.750 C 0.571 238.563, 0.428 243.625, 0.428 256 M 246.500 236.662 C 238.768 240.738, 234.800 247.346, 234.800 256.148 C 234.800 263.395, 238.213 269.789, 244.195 273.748 C 250.112 277.664, 259.719 278.105, 266 274.750 C 272.872 271.079, 276.360 265.412, 276.797 257.207 C 277.257 248.557, 274.532 242.951, 267.580 238.250 C 263.329 235.376, 262.007 235.005, 256.137 235.040 C 252.088 235.064, 248.330 235.697, 246.500 236.662 M 65 259.949 C 65 286.114, 72.484 315.980, 85.611 342.202 C 91.962 354.888, 107.063 377.775, 109.194 377.945 C 110.062 378.014, 167.708 298.893, 169.701 294.897 C 171.497 291.297, 170.425 287.394, 166.937 284.832 C 165.128 283.503, 67.559 251, 65.379 251 C 65.171 251, 65 255.027, 65 259.949 M 396.500 267.082 C 369.550 275.855, 346.403 283.840, 345.063 284.827 C 341.605 287.374, 340.503 291.298, 342.259 294.818 C 344.220 298.748, 401.934 378.009, 402.800 377.961 C 403.185 377.940, 405.073 375.802, 406.996 373.211 C 428.726 343.928, 441.012 314.255, 445.508 280.199 C 447.080 268.292, 447.521 250.954, 446.250 251.066 C 445.837 251.102, 423.450 258.310, 396.500 267.082 M 213.231 303.750 C 211.105 305.618, 201.056 319.158, 199.146 322.727 C 197.466 325.867, 197.737 328.396, 200.073 331.365 C 201.654 333.375, 203.035 334, 205.898 334 C 210.239 334, 210.893 333.386, 219.840 320.910 C 226.525 311.589, 227.220 308.821, 223.927 304.635 C 221.449 301.484, 216.294 301.057, 213.231 303.750 M 291 304 C 287.445 307.555, 288.375 311.822, 294.617 320.601 C 302.726 332.004, 304.805 334, 308.576 334 C 313.165 334, 316.400 331.042, 316.400 326.846 C 316.400 324.265, 314.981 321.494, 310.570 315.467 C 301.946 303.681, 300.167 302, 296.313 302 C 294.333 302, 292.195 302.805, 291 304 M 251.780 352.064 C 250.126 353.027, 192.381 431.843, 191.339 434.558 C 190.444 436.892, 213.240 443.061, 232 445.562 C 245.474 447.357, 266.578 447.350, 280.136 445.545 C 299.231 443.003, 321.565 436.915, 320.640 434.505 C 319.490 431.506, 261.770 352.947, 260.036 352.019 C 257.642 350.738, 254.020 350.758, 251.780 352.064" stroke="none" fill="#040404" fill-rule="evenodd"/></svg>